# xmcd CD database file
#
# Track frame offsets:
#	150
#	19243
#	37583
#	58703
#	76580
#	87408
#	100318
#	120507
#	137134
#	156907
#	171515
#	187958
#	205149
#	222319
#
# Disc length: 3244 seconds
#
# Revision: 0
# Processed by: cddbd v1.5PL3 Copyright (c) Steve Scherf et al.
# Submitted via: CDex 1.51
#
DISCID=b70caa0e
DTITLE=Wendy Daniels - On the Right Track
DYEAR=2004
DGENRE=Country
TTITLE0=On the Right Track
TTITLE1=Still in Love With You
TTITLE2=You Talk Too Much
TTITLE3=After the Rain
TTITLE4=Mood Swings
TTITLE5=You Never
TTITLE6=Good At Goodbyes
TTITLE7=Deeper Love
TTITLE8=No, I Haven't Forgotten
TTITLE9=Chicks Rule
TTITLE10=You've Got Something I Want
TTITLE11=A Woman Knows
TTITLE12=Biggest Fear
TTITLE13=How's Heaven?
EXTD=YEAR: 2004
EXTT0=
EXTT1=
EXTT2=
EXTT3=
EXTT4=
EXTT5=
EXTT6=
EXTT7=
EXTT8=
EXTT9=
EXTT10=
EXTT11=
EXTT12=
EXTT13=
PLAYORDER=
